<svg width="291" height="264" viewBox="0 0 291 264" fill="none" xmlns="http://www.w3.org/2000/svg">
<g opacity="0.3">
<mask id="path-1-inside-1_39_31896" fill="white">
<path fill-rule="evenodd" clip-rule="evenodd" d="M290.247 250.891V13.2843L277.34 0.384766H34.9598L22.053 13.2916L22.0529 197.238L0.35791 206.962L22.0529 216.687L22.0529 250.935L34.9306 263.841H277.311L290.247 250.891Z"/>
</mask>
<path fill-rule="evenodd" clip-rule="evenodd" d="M290.247 250.891V13.2843L277.34 0.384766H34.9598L22.053 13.2916L22.0529 197.238L0.35791 206.962L22.0529 216.687L22.0529 250.935L34.9306 263.841H277.311L290.247 250.891Z" fill="#713ABF"/>
<path d="M290.247 13.2843H290.976V12.9823L290.762 12.7688L290.247 13.2843ZM290.247 250.891L290.763 251.406L290.976 251.192V250.891H290.247ZM277.34 0.384766L277.855 -0.130711L277.642 -0.344023H277.34V0.384766ZM34.9598 0.384766V-0.344023H34.658L34.4445 -0.130566L34.9598 0.384766ZM22.053 13.2916L21.5377 12.7763L21.3242 12.9897V13.2916H22.053ZM22.0529 197.238L22.351 197.903L22.7817 197.71V197.238H22.0529ZM0.35791 206.962L0.059816 206.297L-1.42385 206.962L0.0598159 207.628L0.35791 206.962ZM22.0529 216.687H22.7817V216.215L22.351 216.022L22.0529 216.687ZM22.0529 250.935H21.3241V251.236L21.537 251.449L22.0529 250.935ZM34.9306 263.841L34.4147 264.356L34.6283 264.57H34.9306V263.841ZM277.311 263.841V264.57H277.613L277.827 264.356L277.311 263.841ZM289.518 13.2843V250.891H290.976V13.2843H289.518ZM276.825 0.900242L289.732 13.7998L290.762 12.7688L277.855 -0.130711L276.825 0.900242ZM34.9598 1.11355H277.34V-0.344023H34.9598V1.11355ZM22.5683 13.8069L35.4752 0.900097L34.4445 -0.130566L21.5377 12.7763L22.5683 13.8069ZM22.7817 197.238L22.7818 13.2916H21.3242L21.3241 197.238H22.7817ZM0.656004 207.628L22.351 197.903L21.7548 196.573L0.059816 206.297L0.656004 207.628ZM22.351 216.022L0.656004 206.297L0.0598159 207.628L21.7548 217.352L22.351 216.022ZM22.7817 250.935L22.7817 216.687H21.3241L21.3241 250.935H22.7817ZM35.4465 263.327L22.5688 250.42L21.537 251.449L34.4147 264.356L35.4465 263.327ZM277.311 263.113H34.9306V264.57H277.311V263.113ZM289.731 250.376L276.795 263.326L277.827 264.356L290.763 251.406L289.731 250.376Z" fill="#FF76E1" mask="url(#path-1-inside-1_39_31896)"/>
</g>
<path opacity="0.3" d="M262.8 16.3899L273.961 27.5445V236.637L262.774 247.837H49.4746L38.3392 236.676L38.3392 27.5508L49.5002 16.3899H262.8Z" fill="#713ABF" stroke="#FF76E1" stroke-width="0.728788"/>
</svg>
