<svg width="63" height="64" viewBox="0 0 63 64" fill="none" xmlns="http://www.w3.org/2000/svg">
<circle cx="31.3036" cy="31.9454" r="31.3036" fill="#FFDCF7"/>
<mask id="mask0_39_31878" style="mask-type:luminance" maskUnits="userSpaceOnUse" x="8" y="23" width="47" height="17">
<path d="M45.9657 39.9342C44.9269 39.8213 43.9166 39.4901 42.8793 39.1694C41.6605 38.793 40.3905 38.5927 39.1349 38.3797C34.4479 37.5784 29.6641 37.52 24.959 38.2065C23.8591 38.3631 22.7412 38.5077 21.6565 38.7388C20.5574 38.9721 19.4974 39.3531 18.4104 39.6316C17.9553 39.7513 17.4935 39.8443 17.0275 39.9101C14.9641 40.1871 13.1777 39.5631 11.5848 38.2751C10.6466 37.5196 9.88984 36.5633 9.37015 35.4766C8.85046 34.3899 8.5811 33.2005 8.58191 31.996C8.58191 28.5647 10.8343 25.4286 14.0894 24.3378C16.1437 23.649 18.1951 24.2038 20.2623 24.4793C21.4848 24.6419 22.7101 24.7779 23.9382 24.8873C26.3818 25.1052 28.8318 25.2146 31.2885 25.2156C33.7451 25.2166 36.1954 25.1084 38.6395 24.8911C39.8676 24.7827 41.0926 24.6472 42.3147 24.4846C43.4815 24.3295 44.6483 24.0691 45.8167 23.9501C49.33 23.5895 52.7093 26.4253 53.6834 29.6623C53.9111 30.4193 54.0266 31.2055 54.0259 31.996C54.0259 35.5221 51.4754 39.0203 47.9953 39.8303C47.3296 39.9805 46.6432 40.0156 45.9657 39.9342Z" fill="white"/>
</mask>
<g mask="url(#mask0_39_31878)">
<path d="M88.2502 0.983665H-25.6198V66.2555H88.2502V0.983665Z" fill="url(#paint0_linear_39_31878)"/>
</g>
<g style="mix-blend-mode:color-dodge">
<path d="M45.9657 39.9342C44.9269 39.8213 43.9166 39.4901 42.8793 39.1694C41.6605 38.793 40.3905 38.5927 39.1349 38.3797C34.4479 37.5784 29.6641 37.52 24.959 38.2065C23.8591 38.3631 22.7412 38.5077 21.6565 38.7388C20.5574 38.9721 19.4974 39.3531 18.4104 39.6316C17.9553 39.7513 17.4935 39.8443 17.0275 39.9101C14.9641 40.1871 13.1777 39.5631 11.5848 38.2751C10.6466 37.5196 9.88984 36.5633 9.37015 35.4766C8.85046 34.3899 8.5811 33.2005 8.58191 31.996C8.58191 28.5647 10.8343 25.4286 14.0894 24.3378C16.1437 23.649 18.1951 24.2038 20.2623 24.4793C21.4848 24.6419 22.7101 24.7779 23.9382 24.8873C26.3818 25.1052 28.8318 25.2146 31.2885 25.2156C33.7451 25.2166 36.1954 25.1084 38.6395 24.8911C39.8676 24.7827 41.0926 24.6472 42.3147 24.4846C43.4815 24.3295 44.6483 24.0691 45.8167 23.9501C49.33 23.5895 52.7093 26.4253 53.6834 29.6623C53.9111 30.4193 54.0266 31.2055 54.0259 31.996C54.0259 35.5221 51.4754 39.0203 47.9953 39.8303C47.3296 39.9805 46.6432 40.0156 45.9657 39.9342Z" fill="url(#paint1_linear_39_31878)"/>
<path d="M16.0595 40.1162C14.4312 40.1162 12.9293 39.5448 11.4938 38.3848C10.5395 37.6159 9.76989 36.6428 9.24159 35.5371C8.71329 34.4314 8.43977 33.2213 8.44117 31.9958C8.44117 28.5141 10.7455 25.3102 14.045 24.2044C15.7523 23.6323 17.474 23.9033 19.1384 24.169C19.5148 24.2285 19.8972 24.2887 20.2774 24.3399C21.4961 24.5017 22.7315 24.641 23.9465 24.7472C26.3818 24.9609 28.8479 25.0701 31.2847 25.0701H31.2998C33.7291 25.0701 36.193 24.9609 38.623 24.7464C39.8425 24.638 41.0771 24.5017 42.2921 24.3399C42.7874 24.2744 43.2918 24.1893 43.7796 24.1043C44.4406 23.9906 45.1234 23.8739 45.7986 23.8031C49.5626 23.4268 52.8869 26.523 53.8181 29.6162C54.0502 30.3881 54.1674 31.1899 54.1659 31.9958C54.1659 35.6642 51.4702 39.1654 48.0276 39.9672C47.3464 40.1217 46.6437 40.1586 45.9499 40.0763C44.9766 39.9709 44.0499 39.6834 43.0697 39.3792L42.8349 39.304C41.7215 38.9607 40.5456 38.7619 39.4081 38.5692L39.107 38.5188C34.4343 37.7193 29.6649 37.6611 24.9741 38.3464L24.5164 38.4111C23.5799 38.5429 22.611 38.6799 21.6813 38.8771C21.0392 39.0134 20.3971 39.2046 19.7768 39.389C19.3409 39.5193 18.89 39.6532 18.4405 39.7654C17.9806 39.8882 17.5138 39.9835 17.0426 40.0507C16.7167 40.0943 16.3883 40.1162 16.0595 40.1162ZM16.2642 24.1419C15.541 24.1334 14.8214 24.2435 14.1338 24.4679C10.9495 25.5361 8.72196 28.6301 8.72196 31.9958C8.7208 33.1797 8.98509 34.3488 9.49539 35.4171C10.0057 36.4854 10.749 37.4256 11.6707 38.1687C13.3268 39.5087 15.0718 40.0349 17.0057 39.7744C17.4661 39.7093 17.9224 39.6173 18.372 39.4989C18.8162 39.3853 19.2649 39.252 19.6985 39.1225C20.324 38.9366 20.9714 38.7461 21.6241 38.6054C22.5636 38.4059 23.537 38.2681 24.4787 38.1356L24.9357 38.0709C29.6555 37.3818 34.4543 37.4402 39.156 38.244L39.4571 38.2945C40.6036 38.4887 41.7907 38.6889 42.9199 39.0375L43.1548 39.1127C44.1221 39.4139 45.0368 39.6962 45.9831 39.7993C46.6451 39.8784 47.3158 39.8433 47.9659 39.6954C51.2842 38.917 53.8851 35.534 53.8851 31.9958C53.8858 31.2194 53.7727 30.4471 53.5494 29.7036C52.6498 26.718 49.4422 23.7249 45.8272 24.0892C45.1618 24.157 44.4835 24.2736 43.8278 24.3858C43.337 24.4679 42.8296 24.5537 42.329 24.6184C41.1102 24.7803 39.8719 24.9195 38.6478 25.0257C36.2095 25.241 33.7373 25.3501 31.2998 25.3501H31.2847C28.8397 25.3501 26.3622 25.2395 23.9216 25.0219C22.7021 24.9135 21.4638 24.7765 20.2405 24.6132C19.8581 24.562 19.4764 24.5017 19.0947 24.4415C18.1289 24.2902 17.1924 24.1419 16.2642 24.1419Z" fill="#9ECFF7"/>
<path d="M17.3068 38.5565C15.8117 38.5565 14.4326 38.0943 13.1145 37.1548C11.8912 36.2823 10.9901 35.0688 10.5776 33.7386C10.4014 33.1704 10.3119 32.5788 10.3118 31.9839C10.3118 29.1669 12.4279 26.5743 15.4572 25.68C17.0253 25.2208 18.6054 25.4376 20.1335 25.6514C20.4813 25.6995 20.8299 25.7485 21.1792 25.7891C22.2986 25.9209 23.4315 26.0323 24.5479 26.1196C26.7815 26.2942 29.0481 26.3838 31.2855 26.3846H31.2998C33.5333 26.3846 35.7917 26.2957 38.0245 26.1241C39.1439 26.0368 40.2776 25.9269 41.3932 25.7959C41.8449 25.7424 42.3109 25.6724 42.7588 25.6047C43.3656 25.5136 43.9926 25.4187 44.6129 25.363C48.0622 25.0544 51.1208 27.5619 51.9768 30.0642C52.1884 30.6821 52.2963 31.3308 52.296 31.9839C52.296 34.9521 49.82 37.7849 46.6598 38.4331C46.0313 38.559 45.3874 38.589 44.7499 38.5219C43.8564 38.4361 43.0057 38.2035 42.1054 37.9573L41.8893 37.8986C40.8678 37.6208 39.7875 37.4597 38.7434 37.3046L38.4686 37.2632C34.1703 36.6165 29.8031 36.5697 25.4919 37.124L25.0719 37.1759C24.2114 37.2828 23.3224 37.3935 22.4687 37.5523C21.8793 37.663 21.2898 37.8173 20.72 37.9671C20.3195 38.0717 19.9054 38.1801 19.4929 38.2735C19.0691 38.3714 18.6404 38.4468 18.2086 38.4993C17.9094 38.536 17.6083 38.5551 17.3068 38.5565ZM17.4988 25.6318C16.8369 25.6251 16.1775 25.7148 15.5415 25.8983C12.6131 26.7595 10.573 29.2633 10.573 31.9839C10.573 32.5584 10.6596 33.1297 10.8298 33.6784C11.228 34.9634 12.0982 36.1355 13.2801 36.9779C14.8007 38.0619 16.4034 38.4835 18.1785 38.2765C18.6006 38.2236 19.0195 38.1482 19.4334 38.0506C19.8415 37.9588 20.2525 37.8512 20.6507 37.7495C21.2259 37.599 21.8198 37.4431 22.419 37.331C23.2817 37.1691 24.1761 37.0585 25.0403 36.9508L25.4596 36.8989C29.7963 36.3418 34.1893 36.3892 38.513 37.0396L38.7878 37.081C39.8417 37.2376 40.9288 37.4002 41.9669 37.6833L42.1829 37.7428C43.0712 37.9852 43.9143 38.2148 44.7793 38.2976C45.3871 38.3616 46.001 38.3334 46.6003 38.214C49.6491 37.5884 52.037 34.8528 52.037 31.9861C52.037 31.3554 51.933 30.7289 51.7291 30.132C50.901 27.7155 47.9576 25.2945 44.6385 25.5896C44.0273 25.6438 43.4047 25.7402 42.8025 25.829C42.3508 25.8975 41.8863 25.9675 41.4271 26.021C40.3085 26.1505 39.1702 26.2611 38.0501 26.3499C35.8113 26.5238 33.5408 26.6127 31.3035 26.6127H31.2892C29.0444 26.6127 26.7724 26.5223 24.5291 26.3469C23.409 26.2589 22.2707 26.1474 21.1483 26.0157C20.7975 25.9743 20.4467 25.9254 20.0944 25.8764C19.2069 25.7522 18.3472 25.6318 17.4988 25.6318Z" fill="#9ECFF7"/>
<g style="mix-blend-mode:color-dodge">
<path d="M25.0268 33.2982C25.0268 33.5165 24.9176 33.713 24.6993 33.8937C24.4764 34.0772 24.2049 34.1918 23.9179 34.2234C22.072 34.4498 20.2365 34.7669 18.4112 35.1749V27.4212C20.2345 27.8287 22.07 28.1461 23.9179 28.3734C24.2049 28.4043 24.4766 28.5187 24.6993 28.7024C24.9176 28.8831 25.0268 29.0788 25.0268 29.2979V33.2982ZM23.3646 33.1048V29.4913C22.2575 29.4045 21.1554 29.2974 20.0583 29.1699V33.4262C21.1549 33.3012 22.2567 33.1941 23.3638 33.1048H23.3646Z" fill="#F7C1F6"/>
<path d="M34.2628 33.8914C32.5936 33.791 30.9232 33.7659 29.2514 33.8161C28.9771 33.8333 28.7038 33.7686 28.4663 33.6302C28.248 33.4954 28.1381 33.329 28.1381 33.128V28.7377C28.6946 28.7648 29.2514 28.7839 29.8085 28.795V32.8096C31.294 32.7925 32.7788 32.8099 34.2628 32.8616V33.8914Z" fill="#F7C1F6"/>
<path d="M43.4341 35.1749C41.794 34.8085 40.1429 34.515 38.4807 34.2941C38.1927 34.2595 37.9212 34.1409 37.7001 33.9531C37.4818 33.7664 37.3734 33.5662 37.3734 33.3426V29.2579C37.3734 29.0321 37.4825 28.8341 37.7001 28.6482C37.921 28.4601 38.1926 28.3415 38.4807 28.3072C40.1404 28.0858 41.7915 27.792 43.4341 27.4256V28.9628C41.9757 29.1601 40.509 29.3219 39.034 29.4484V33.1506C40.508 33.2776 41.9747 33.4392 43.4341 33.6354V35.1749Z" fill="#F7C1F6"/>
</g>
</g>
<defs>
<linearGradient id="paint0_linear_39_31878" x1="-25.6198" y1="33.6196" x2="88.2502" y2="33.6196" gradientUnits="userSpaceOnUse">
<stop stop-color="#51078B"/>
<stop offset="1" stop-color="#0E318C"/>
</linearGradient>
<linearGradient id="paint1_linear_39_31878" x1="31.3035" y1="39.9749" x2="31.3035" y2="23.9162" gradientUnits="userSpaceOnUse">
<stop stop-color="#D807D8" stop-opacity="0.7"/>
<stop offset="0.01" stop-color="#D807D8" stop-opacity="0.65"/>
<stop offset="0.04" stop-color="#D807D8" stop-opacity="0.5"/>
<stop offset="0.08" stop-color="#D807D8" stop-opacity="0.37"/>
<stop offset="0.11" stop-color="#D807D8" stop-opacity="0.27"/>
<stop offset="0.16" stop-color="#D807D8" stop-opacity="0.19"/>
<stop offset="0.22" stop-color="#D807D8" stop-opacity="0.14"/>
<stop offset="0.3" stop-color="#D807D8" stop-opacity="0.11"/>
<stop offset="0.52" stop-color="#D807D8" stop-opacity="0.1"/>
<stop offset="0.72" stop-color="#D807D8" stop-opacity="0.11"/>
<stop offset="0.8" stop-color="#D807D8" stop-opacity="0.14"/>
<stop offset="0.85" stop-color="#D807D8" stop-opacity="0.19"/>
<stop offset="0.89" stop-color="#D807D8" stop-opacity="0.27"/>
<stop offset="0.93" stop-color="#D807D8" stop-opacity="0.37"/>
<stop offset="0.96" stop-color="#D807D8" stop-opacity="0.5"/>
<stop offset="0.99" stop-color="#D807D8" stop-opacity="0.65"/>
<stop offset="1" stop-color="#D807D8" stop-opacity="0.7"/>
</linearGradient>
</defs>
</svg>
