<svg width="92" height="34" viewBox="0 0 92 34" fill="none" xmlns="http://www.w3.org/2000/svg">
<mask id="mask0_39_31861" style="mask-type:luminance" maskUnits="userSpaceOnUse" x="0" y="0" width="92" height="34">
<path d="M75.5008 33.0732C73.4106 32.846 71.3779 32.1796 69.2908 31.5343C66.8385 30.777 64.2833 30.3741 61.7569 29.9454C52.3266 28.3333 42.7013 28.2157 33.2345 29.5971C31.0216 29.9121 28.7723 30.2029 26.5897 30.6679C24.3783 31.1375 22.2457 31.9039 20.0585 32.4643C19.1428 32.7053 18.2137 32.8924 17.2761 33.0247C13.1244 33.5821 9.53016 32.3265 6.32515 29.7349C4.43751 28.2148 2.91481 26.2908 1.86917 24.1043C0.823536 21.9179 0.28158 19.5248 0.283207 17.1012C0.283207 10.1974 4.81505 3.88737 11.3644 1.69264C15.4979 0.306732 19.6253 1.42303 23.7845 1.97739C26.2443 2.30456 28.7097 2.5782 31.1806 2.79833C36.0972 3.23657 41.0268 3.4567 45.9697 3.45872C50.9125 3.46074 55.8427 3.24314 60.7602 2.80591C63.2311 2.5878 65.696 2.31516 68.1548 1.988C70.5025 1.67598 72.8502 1.15191 75.2009 0.912593C82.2698 0.187074 89.0691 5.89277 91.029 12.4058C91.4873 13.9287 91.7195 15.5108 91.7182 17.1012C91.7182 24.1958 86.5866 31.2344 79.5843 32.8642C78.245 33.1663 76.864 33.237 75.5008 33.0732Z" fill="white"/>
</mask>
<g mask="url(#mask0_39_31861)">
<path d="M160.579 -45.2964H-68.5319V86.033H160.579V-45.2964Z" fill="url(#paint0_linear_39_31861)"/>
</g>
<g style="mix-blend-mode:color-dodge">
<path d="M75.5008 33.0732C73.4106 32.846 71.3779 32.1796 69.2908 31.5343C66.8385 30.777 64.2833 30.3741 61.7569 29.9454C52.3266 28.3333 42.7013 28.2157 33.2345 29.5971C31.0216 29.9121 28.7723 30.2029 26.5897 30.6679C24.3783 31.1375 22.2457 31.9039 20.0585 32.4643C19.1428 32.7053 18.2137 32.8924 17.2761 33.0247C13.1244 33.5821 9.53016 32.3265 6.32515 29.7349C4.43751 28.2148 2.91481 26.2908 1.86917 24.1043C0.823536 21.9179 0.28158 19.5248 0.283207 17.1012C0.283207 10.1974 4.81505 3.88737 11.3644 1.69264C15.4979 0.306732 19.6253 1.42303 23.7845 1.97739C26.2443 2.30456 28.7097 2.5782 31.1806 2.79833C36.0972 3.23657 41.0268 3.4567 45.9697 3.45872C50.9125 3.46074 55.8427 3.24314 60.7602 2.80591C63.2311 2.5878 65.696 2.31516 68.1548 1.988C70.5025 1.67598 72.8502 1.15191 75.2009 0.912593C82.2698 0.187074 89.0691 5.89277 91.029 12.4058C91.4873 13.9287 91.7195 15.5108 91.7182 17.1012C91.7182 24.1958 86.5866 31.2344 79.5843 32.8642C78.245 33.1663 76.864 33.237 75.5008 33.0732Z" fill="url(#paint1_linear_39_31861)"/>
<path d="M15.3283 33.4398C12.0521 33.4398 9.03037 32.2902 6.14192 29.9561C4.22194 28.4092 2.67345 26.4512 1.61049 24.2265C0.547531 22.0017 -0.00280715 19.5669 1.07671e-05 17.1012C1.07671e-05 10.096 4.63636 3.64962 11.2751 1.4246C14.7103 0.273465 18.1743 0.81874 21.5232 1.35341C22.2805 1.47307 23.05 1.59424 23.8149 1.69724C26.2671 2.02289 28.7526 2.3031 31.1973 2.51666C36.0972 2.94683 41.0592 3.16645 45.9621 3.16645H45.9924C50.8802 3.16645 55.8377 2.94683 60.7269 2.51515C63.1807 2.29704 65.6647 2.02289 68.1094 1.69724C69.106 1.56546 70.1208 1.39431 71.1023 1.22315C72.4322 0.994439 73.806 0.759668 75.1646 0.617291C82.7379 -0.140035 89.4266 6.08973 91.3002 12.3134C91.7671 13.8664 92.0029 15.4796 92 17.1012C92 24.4821 86.576 31.5268 79.6495 33.1399C78.2787 33.4507 76.8649 33.525 75.4691 33.3595C73.5106 33.1475 71.6461 32.5689 69.674 31.957L69.2014 31.8055C66.9613 31.1148 64.5954 30.7149 62.3067 30.3272L61.7009 30.2257C52.2992 28.6171 42.7029 28.5 33.2648 29.8789L32.3439 30.0091C30.4597 30.2742 28.5103 30.5498 26.6397 30.9467C25.3477 31.2208 24.0557 31.6056 22.8076 31.9766C21.9307 32.2387 21.0234 32.5083 20.1191 32.734C19.1938 32.9811 18.2546 33.1728 17.3064 33.308C16.6507 33.3957 15.9899 33.4397 15.3283 33.4398ZM15.7403 1.29888C14.2852 1.28175 12.8372 1.50331 11.4538 1.95473C5.04683 4.10402 0.564976 10.3292 0.564976 17.1012C0.562639 19.4833 1.0944 21.8356 2.12114 23.985C3.14788 26.1344 4.64347 28.0263 6.49787 29.5214C9.8301 32.2175 13.3411 33.2762 17.2322 32.7521C18.1586 32.6211 19.0765 32.436 19.9813 32.1978C20.8749 31.9691 21.7777 31.701 22.6501 31.4405C23.9088 31.0663 25.2114 30.6831 26.5246 30.3999C28.4149 29.9985 30.3733 29.7213 32.2682 29.4547L33.1875 29.3245C42.684 27.9381 52.3395 28.0556 61.7993 29.6729L62.4052 29.7743C64.712 30.1651 67.1006 30.568 69.3726 31.2693L69.8452 31.4208C71.7915 32.0266 73.6318 32.5946 75.5357 32.8021C76.8677 32.9613 78.2172 32.8906 79.5253 32.5931C86.2019 31.027 91.435 24.2201 91.435 17.1012C91.4362 15.5391 91.2087 13.9853 90.7595 12.4891C88.9495 6.48202 82.4955 0.459767 75.2222 1.19286C73.8832 1.32918 72.5185 1.56395 71.1993 1.78963C70.2117 1.95473 69.1908 2.1274 68.1836 2.25766C65.7314 2.58331 63.2398 2.86352 60.7769 3.07709C55.871 3.51028 50.8969 3.7299 45.9924 3.7299H45.9621C41.0425 3.7299 36.0578 3.50725 31.1473 3.06951C28.6936 2.8514 26.202 2.57574 23.7407 2.24706C22.9712 2.14406 22.2033 2.02289 21.4354 1.90172C19.4921 1.59727 17.6078 1.29888 15.7403 1.29888Z" fill="#9ECFF7"/>
<path d="M17.8381 30.3016C14.83 30.3016 12.0551 29.3716 9.40297 27.4814C6.94166 25.7259 5.12862 23.2843 4.29859 20.6079C3.94421 19.4645 3.76397 18.2743 3.76392 17.0772C3.76392 11.4094 8.0216 6.19292 14.1166 4.39352C17.2716 3.46958 20.4508 3.9058 23.5256 4.33596C24.2253 4.4329 24.9266 4.53135 25.6294 4.61314C27.8817 4.8782 30.1613 5.10237 32.4075 5.27807C36.9015 5.62947 41.4621 5.80971 45.9636 5.81123H45.9924C50.4864 5.81123 55.0303 5.6325 59.5228 5.28716C61.7751 5.11146 64.0562 4.89032 66.3009 4.62677C67.2097 4.51923 68.1472 4.37837 69.0484 4.24205C70.2692 4.05878 71.531 3.86793 72.779 3.75585C79.7192 3.13484 85.8732 8.18014 87.5954 13.2148C88.0212 14.458 88.2382 15.7631 88.2376 17.0772C88.2376 23.0495 83.2559 28.7491 76.8974 30.0532C75.6329 30.3067 74.3373 30.3669 73.0547 30.232C71.2568 30.0593 69.5452 29.5913 67.7337 29.096L67.299 28.9778C65.2436 28.4189 63.0701 28.0948 60.9693 27.7828L60.4164 27.6995C51.7681 26.3983 42.9811 26.304 34.3069 27.4193L33.4617 27.5238C31.7304 27.7388 29.9416 27.9615 28.224 28.2811C27.0381 28.5037 25.8521 28.8142 24.7055 29.1157C23.8997 29.3262 23.0666 29.5443 22.2366 29.7321C21.3839 29.9291 20.5214 30.0808 19.6526 30.1865C19.0505 30.2604 18.4446 30.2988 17.8381 30.3016ZM18.2243 4.29658C16.8925 4.28306 15.5659 4.46369 14.2862 4.83276C8.39421 6.56553 4.2895 11.6033 4.2895 17.0772C4.2895 18.2332 4.46362 19.3826 4.806 20.4867C5.60725 23.0722 7.35819 25.4305 9.73619 27.1254C12.7958 29.3065 16.0205 30.1547 19.592 29.7382C20.4412 29.6318 21.284 29.4801 22.117 29.2838C22.9379 29.099 23.7649 28.8824 24.5661 28.6779C25.7233 28.375 26.9184 28.0615 28.1241 27.8358C29.8599 27.5101 31.6593 27.2875 33.3981 27.0709L34.2417 26.9664C42.9674 25.8456 51.8064 25.9409 60.5058 27.2496L61.0587 27.3329C63.1792 27.648 65.3663 27.9751 67.455 28.5446L67.8897 28.6643C69.677 29.152 71.3734 29.614 73.1138 29.7806C74.3366 29.9095 75.5718 29.8528 76.7777 29.6125C82.9121 28.3538 87.7165 22.8496 87.7165 17.0818C87.7165 15.8126 87.5072 14.5522 87.097 13.3512C85.4309 8.48913 79.5086 3.61801 72.8305 4.21176C71.6006 4.32081 70.348 4.51469 69.1363 4.69342C68.2275 4.83125 67.293 4.97211 66.369 5.07965C64.1182 5.34017 61.8281 5.56283 59.5743 5.74156C55.0697 6.09144 50.5015 6.27017 46 6.27017H45.9712C41.4545 6.27017 36.8833 6.08841 32.3696 5.7355C30.1158 5.55828 27.8257 5.33411 25.5673 5.06905C24.8615 4.98574 24.1557 4.88729 23.4468 4.78884C21.661 4.53892 19.9313 4.29658 18.2243 4.29658Z" fill="#9ECFF7"/>
<g style="mix-blend-mode:color-dodge">
<path d="M33.3708 19.7217C33.3708 20.161 33.1512 20.5563 32.7119 20.9198C32.2635 21.2891 31.7172 21.5197 31.1397 21.5832C27.4258 22.0386 23.7326 22.6768 20.0601 23.4977V7.89682C23.7285 8.71675 27.4218 9.35543 31.1397 9.81285C31.7173 9.87493 32.2639 10.1051 32.7119 10.4748C33.1512 10.8383 33.3708 11.2321 33.3708 11.6728V19.7217ZM30.0265 19.3324V12.0621C27.7989 11.8874 25.5815 11.6718 23.3741 11.4154V19.9792C25.5805 19.7278 27.7974 19.5122 30.025 19.3324H30.0265Z" fill="#F7C1F6"/>
<path d="M51.9541 20.9151C48.5956 20.7132 45.2346 20.6627 41.871 20.7637C41.319 20.7982 40.7692 20.668 40.2912 20.3896C39.852 20.1184 39.6309 19.7837 39.6309 19.3793V10.5458C40.7507 10.6004 41.871 10.6387 42.9919 10.661V18.7386C45.9808 18.7043 48.9682 18.7391 51.9541 18.8431V20.9151Z" fill="#F7C1F6"/>
<path d="M70.4072 23.4976C67.1072 22.7605 63.7851 22.1697 60.4408 21.7254C59.8612 21.6557 59.315 21.4171 58.8701 21.0393C58.4308 20.6637 58.2127 20.2608 58.2127 19.8109V11.5924C58.2127 11.138 58.4323 10.7397 58.8701 10.3656C59.3147 9.98723 59.8611 9.74855 60.4408 9.67942C63.7801 9.23411 67.1022 8.64289 70.4072 7.90576V10.9987C67.4728 11.3955 64.5217 11.7212 61.554 11.9756V19.4247C64.5197 19.6802 67.4708 20.0053 70.4072 20.4001V23.4976Z" fill="#F7C1F6"/>
</g>
</g>
<defs>
<linearGradient id="paint0_linear_39_31861" x1="-68.5319" y1="20.3683" x2="160.579" y2="20.3683" gradientUnits="userSpaceOnUse">
<stop stop-color="#51078B"/>
<stop offset="1" stop-color="#0E318C"/>
</linearGradient>
<linearGradient id="paint1_linear_39_31861" x1="45.9999" y1="33.155" x2="45.9999" y2="0.844433" gradientUnits="userSpaceOnUse">
<stop stop-color="#D807D8" stop-opacity="0.7"/>
<stop offset="0.01" stop-color="#D807D8" stop-opacity="0.65"/>
<stop offset="0.04" stop-color="#D807D8" stop-opacity="0.5"/>
<stop offset="0.08" stop-color="#D807D8" stop-opacity="0.37"/>
<stop offset="0.11" stop-color="#D807D8" stop-opacity="0.27"/>
<stop offset="0.16" stop-color="#D807D8" stop-opacity="0.19"/>
<stop offset="0.22" stop-color="#D807D8" stop-opacity="0.14"/>
<stop offset="0.3" stop-color="#D807D8" stop-opacity="0.11"/>
<stop offset="0.52" stop-color="#D807D8" stop-opacity="0.1"/>
<stop offset="0.72" stop-color="#D807D8" stop-opacity="0.11"/>
<stop offset="0.8" stop-color="#D807D8" stop-opacity="0.14"/>
<stop offset="0.85" stop-color="#D807D8" stop-opacity="0.19"/>
<stop offset="0.89" stop-color="#D807D8" stop-opacity="0.27"/>
<stop offset="0.93" stop-color="#D807D8" stop-opacity="0.37"/>
<stop offset="0.96" stop-color="#D807D8" stop-opacity="0.5"/>
<stop offset="0.99" stop-color="#D807D8" stop-opacity="0.65"/>
<stop offset="1" stop-color="#D807D8" stop-opacity="0.7"/>
</linearGradient>
</defs>
</svg>
