<svg width="15" height="15" viewBox="0 0 15 15" fill="none" xmlns="http://www.w3.org/2000/svg">
<path d="M13.913 7.35332L1.07767 0.93564C0.977074 0.885329 0.864075 0.865171 0.752284 0.877592C0.640494 0.890013 0.534676 0.934485 0.447574 1.00565C0.364392 1.07537 0.302305 1.1669 0.268293 1.26997C0.234281 1.37303 0.229693 1.48355 0.255044 1.58908L1.80112 7.28914H8.39966V8.456H1.80112L0.231707 14.1386C0.207918 14.2267 0.205141 14.3192 0.223599 14.4086C0.242058 14.498 0.281235 14.5818 0.337983 14.6533C0.39473 14.7248 0.467464 14.782 0.550335 14.8203C0.633206 14.8585 0.723903 14.8768 0.815132 14.8737C0.906463 14.8731 0.996389 14.8511 1.07767 14.8095L13.913 8.39182C14.0086 8.34286 14.0888 8.26847 14.1448 8.17686C14.2008 8.08524 14.2304 7.97995 14.2304 7.87257C14.2304 7.76519 14.2008 7.6599 14.1448 7.56828C14.0888 7.47667 14.0086 7.40228 13.913 7.35332Z" fill="white"/>
</svg>
